<svg width="1011" height="311" viewBox="0 0 1011 311" fill="none" xmlns="http://www.w3.org/2000/svg">
<path d="M86.3539 8.21847C98.0848 8.21847 109.502 9.89432 120.604 13.246C131.916 16.3882 142.076 20.9968 151.084 27.0718L129.402 54.0949C123.746 49.0674 116.938 45.192 108.978 42.4687C101.018 39.7455 93.3715 38.3838 86.0396 38.3838C77.8698 38.3838 70.4332 40.5834 63.7298 44.9825C57.0264 49.1721 53.6747 55.7708 53.6747 64.7785C53.6747 73.7862 57.0264 81.0133 63.7298 86.4599C70.4332 91.9064 78.3935 96.934 87.6107 101.543C94.9426 105.104 102.484 108.77 110.235 112.54C118.195 116.311 125.527 120.92 132.23 126.366C138.934 131.603 144.38 138.097 148.57 145.848C152.76 153.599 154.854 163.13 154.854 174.442C154.854 189.734 151.084 202.722 143.542 213.406C136.001 224.089 126.051 232.154 113.691 237.601C101.541 243.047 88.3439 245.771 74.0992 245.771C61.3208 245.771 48.5424 244.409 35.764 241.686C23.1951 238.753 11.3594 234.04 0.25689 227.546L15.0253 192.667C22.3572 199.37 30.8412 204.922 40.4774 209.321C50.1135 213.51 59.9592 215.605 70.0143 215.605C76.7177 215.605 83.0021 214.348 88.8676 211.835C94.7331 209.321 99.5512 205.655 103.322 200.837C107.093 195.809 108.978 189.63 108.978 182.298C108.978 174.756 106.883 168.577 102.693 163.759C98.5038 158.731 93.0573 154.332 86.3539 150.561C79.6504 146.791 72.4233 143.125 64.6725 139.563C55.6648 135.374 46.7618 130.765 37.9636 125.738C29.1654 120.501 21.9382 113.797 16.2822 105.627C10.6262 97.4577 7.79823 86.8788 7.79823 73.891C7.79823 58.5988 11.5689 46.1346 19.1102 36.4985C26.6516 26.8623 36.3925 19.74 48.3329 15.1314C60.2734 10.5228 72.947 8.21847 86.3539 8.21847ZM219.152 0.362901V242H180.817V17.3309L177.361 0.362901H219.152ZM319.696 82.0608C336.454 82.0608 349.338 86.3551 358.345 94.9439C367.563 103.323 372.171 115.997 372.171 132.965V201.78C372.171 207.854 373.114 211.939 374.999 214.034C376.884 216.129 379.293 217.176 382.226 217.176C385.997 217.176 390.082 216.338 394.481 214.663L400.451 236.03C395.843 238.544 390.605 240.534 384.74 242C378.875 243.676 373.533 244.514 368.715 244.514C361.173 244.514 355.098 242.943 350.49 239.8C345.881 236.658 342.634 231.212 340.749 223.461C334.883 231.631 327.97 237.391 320.01 240.743C312.259 243.885 303.461 245.456 293.615 245.456C281.466 245.456 270.991 242 262.193 235.087C253.604 227.965 249.31 218.014 249.31 205.236C249.31 193.924 251.929 184.707 257.166 177.584C262.612 170.253 269.63 164.701 278.219 160.931C286.807 156.95 296.025 154.227 305.87 152.761C315.925 151.294 325.457 150.561 334.464 150.561V130.137C334.464 121.758 332.684 115.997 329.123 112.855C325.561 109.712 319.801 108.141 311.84 108.141C304.718 108.141 297.596 110.131 290.473 114.111C283.351 118.092 277.066 122.176 271.62 126.366L256.223 101.543C275.286 88.5547 296.443 82.0608 319.696 82.0608ZM334.464 176.328C330.065 176.328 325.247 176.537 320.01 176.956C314.773 177.375 309.746 178.422 304.927 180.098C300.109 181.774 296.129 184.288 292.987 187.64C290.054 190.991 288.588 195.6 288.588 201.465C288.588 206.283 290.473 210.054 294.244 212.777C298.224 215.291 302.414 216.548 306.813 216.548C312.678 216.548 317.601 214.872 321.581 211.52C325.771 208.169 328.913 203.979 331.008 198.952C333.312 193.714 334.464 188.582 334.464 183.555V176.328ZM446.372 82.375C448.467 88.031 450.038 94.3154 451.085 101.228C455.694 94.9439 462.188 90.1258 470.567 86.7741C479.156 83.2129 487.116 81.4323 494.448 81.4323C509.531 81.4323 521.995 85.4125 531.84 93.3728C541.895 101.124 549.332 111.179 554.15 123.538C559.178 135.688 561.691 148.571 561.691 162.187C561.691 177.27 558.968 191.096 553.522 203.665C548.075 216.234 539.905 226.289 529.012 233.83C518.119 241.372 504.608 245.142 488.478 245.142C483.241 245.142 477.166 244.304 470.253 242.628C463.549 240.953 457.998 238.439 453.599 235.087C454.018 238.02 454.227 241.162 454.227 244.514C454.227 248.075 454.227 251.008 454.227 253.312V292.904L458.626 310.186H416.206V129.823C416.206 125.842 415.892 121.234 415.264 115.997C414.845 110.55 413.902 105.208 412.436 99.9714C411.179 94.7344 409.398 90.44 407.094 87.0883L446.372 82.375ZM484.079 109.398C478.422 109.398 472.766 110.969 467.11 114.111C461.664 117.044 457.37 120.92 454.227 125.738V176.956C454.227 183.869 455.065 190.572 456.741 197.066C458.626 203.351 461.769 208.483 466.168 212.463C470.776 216.443 477.166 218.433 485.335 218.433C492.248 218.433 497.904 216.653 502.303 213.092C506.912 209.53 510.578 204.922 513.301 199.266C516.024 193.61 517.91 187.64 518.957 181.355C520.005 175.071 520.528 169.205 520.528 163.759C520.528 158.103 519.9 152.132 518.643 145.848C517.596 139.563 515.605 133.698 512.673 128.251C509.949 122.595 506.179 118.092 501.361 114.74C496.752 111.179 490.991 109.398 484.079 109.398ZM620.974 82.375C623.069 88.031 624.64 94.3154 625.687 101.228C630.296 94.9439 636.79 90.1258 645.169 86.7741C653.758 83.2129 661.718 81.4323 669.05 81.4323C684.133 81.4323 696.597 85.4125 706.442 93.3728C716.498 101.124 723.934 111.179 728.752 123.538C733.78 135.688 736.294 148.571 736.294 162.187C736.294 177.27 733.57 191.096 728.124 203.665C722.677 216.234 714.508 226.289 703.614 233.83C692.721 241.372 679.21 245.142 663.08 245.142C657.843 245.142 651.768 244.304 644.855 242.628C638.151 240.953 632.6 238.439 628.201 235.087C628.62 238.02 628.83 241.162 628.83 244.514C628.83 248.075 628.83 251.008 628.83 253.312V292.904L633.229 310.186H590.809V129.823C590.809 125.842 590.494 121.234 589.866 115.997C589.447 110.55 588.504 105.208 587.038 99.9714C585.781 94.7344 584 90.44 581.696 87.0883L620.974 82.375ZM658.681 109.398C653.025 109.398 647.369 110.969 641.713 114.111C636.266 117.044 631.972 120.92 628.83 125.738V176.956C628.83 183.869 629.667 190.572 631.343 197.066C633.229 203.351 636.371 208.483 640.77 212.463C645.379 216.443 651.768 218.433 659.938 218.433C666.85 218.433 672.506 216.653 676.906 213.092C681.514 209.53 685.18 204.922 687.903 199.266C690.627 193.61 692.512 187.64 693.559 181.355C694.607 175.071 695.13 169.205 695.13 163.759C695.13 158.103 694.502 152.132 693.245 145.848C692.198 139.563 690.208 133.698 687.275 128.251C684.552 122.595 680.781 118.092 675.963 114.74C671.354 111.179 665.594 109.398 658.681 109.398ZM827.627 81.4323C842.081 81.4323 853.917 84.5745 863.134 90.859C872.561 97.1434 879.473 105.313 883.873 115.368C888.481 125.214 890.785 135.793 890.785 147.105C890.785 154.437 889.843 161.559 887.957 168.472H792.434C792.434 185.23 796.414 198.114 804.374 207.121C812.335 215.92 822.704 220.319 835.482 220.319C841.557 220.319 848.051 219.271 854.964 217.176C862.086 215.082 869.418 211.835 876.96 207.436L887.015 228.803C879.892 234.459 870.885 238.648 859.992 241.372C849.308 244.095 839.672 245.456 831.083 245.456C814.744 245.456 800.708 242.105 788.977 235.401C777.246 228.698 768.239 219.376 761.954 207.436C755.67 195.286 752.528 181.146 752.528 165.015C752.528 150.352 755.46 136.735 761.326 124.167C767.401 111.388 775.99 101.124 787.092 93.3728C798.404 85.4125 811.916 81.4323 827.627 81.4323ZM826.056 107.199C819.143 107.199 813.277 109.084 808.459 112.855C803.851 116.625 800.289 121.339 797.776 126.995C795.262 132.651 793.795 138.202 793.376 143.648H851.508C852.555 137.573 852.241 131.813 850.565 126.366C848.889 120.71 845.956 116.102 841.767 112.54C837.577 108.979 832.34 107.199 826.056 107.199ZM950.846 82.6892C955.455 93.1633 957.969 104.161 958.388 115.683C963.625 106.884 970.956 99.2382 980.383 92.7443C989.81 86.0409 999.76 82.6892 1010.23 82.6892L1003.95 120.082C994.733 120.082 986.458 122.491 979.126 127.309C972.004 131.917 965.196 139.145 958.702 148.99V242H920.995V127.937C920.995 123.957 920.681 119.348 920.052 114.111C919.424 108.665 918.377 103.428 916.91 98.4003C915.444 93.3728 913.454 89.1831 910.94 85.8314L950.846 82.6892Z" fill="black"/>
</svg>
